# xmcd
#
# Track frame offsets:
#  150
#  13457
#  27370
#  41440
#  62200
#  70002
#  82047
#  91630
#  103410
#  115697
#  128105
#  145390
#  153222
#  163890
#  170425
#  181685
#  199947
#  217652
#  234055
#
# Disc length: 3279 seconds
#
# Revision: 0
# Processed by: cddbd v1.4PL0 Copyright (c) Steve Scherf et al.
# Submitted via: AltoMP3_Maker 3.0
#
DISCID=fa0ccd13
DTITLE=Cornelius Vreeswijk - Guldkorn(Romantikern)
DYEAR=1900
DGENRE=
TTITLE0=Balladen om Fredrik Åkare
TTITLE1=Deidres samba
TTITLE2=Veronika
TTITLE3=Saskia
TTITLE4=Papillas samba
TTITLE5=Felicia adjö
TTITLE6=Grimasch om morgonen
TTITLE7=Florentjin i byn
TTITLE8=En viss sorts samba
TTITLE9=En visa i vinden
TTITLE10=Dansen på Sunnanö
TTITLE11=Ingrid Dardels polska
TTITLE12=Rosenblad, Rosenblad
TTITLE13=Bibbis visa
TTITLE14=Jag minns dig Amanda
TTITLE15=En visa om ett rosenblad
TTITLE16=Elisabeth
TTITLE17=Medborgarinnan Agda Gustavssons lott
TTITLE18=Första vackra dan i maj
EXTD=
EXTT0=
EXTT1=
EXTT2=
EXTT3=
EXTT4=
EXTT5=
EXTT6=
EXTT7=
EXTT8=
EXTT9=
EXTT10=
EXTT11=
EXTT12=
EXTT13=
EXTT14=
EXTT15=
EXTT16=
EXTT17=
EXTT18=
PLAYORDER=
